# xmcd CD database file
#
# Track frame offsets:
#	150
#	10808
#	18456
#	29764
#	37820
#	46903
#	56257
#	65043
#	76353
#	89397
#	112360
#	121351
#	135556
#	153309
#	163574
#	173421
#	185339
#	198616
#	213596
#
# Disc length: 3052 seconds
#
# Revision: 0
# Processed by: cddbd v1.5.2PL0 Copyright (c) Steve Scherf et al.
# Submitted via: CDex 1.51
#
DISCID=010bea13
DTITLE=Anita O'Day - 3 Originals
DYEAR=1900
DGENRE=Jazz
TTITLE0=I Get A Kick Out Of You - (Anita O'Day Swings Cole Porter)
TTITLE1=All Of You
TTITLE2=Get Out Of Town
TTITLE3=I've Got You Under My Skin
TTITLE4=Night And Day
TTITLE5=It's Delovely
TTITLE6=I Love You
TTITLE7=What Is This Thing Called Love
TTITLE8=But Not For Me - (Anita O'Day At Mister Kelly's)
TTITLE9=I Have A Reason For Living My Love
TTITLE10=Varsity Drag
TTITLE11=It Never Entered My Mind
TTITLE12=Tea For Two
TTITLE13=Everytime I'M With You
TTITLE14=Have You Met Miss Jones ?
TTITLE15=The Wildest Gal In Town
TTITLE16=Star Eyes
TTITLE17=Loneliness Is As Well
TTITLE18=The Song Is You
EXTD=
EXTT0=
EXTT1=
EXTT2=
EXTT3=
EXTT4=
EXTT5=
EXTT6=
EXTT7=
EXTT8=
EXTT9=
EXTT10=
EXTT11=
EXTT12=
EXTT13=
EXTT14=
EXTT15=
EXTT16=
EXTT17=
EXTT18=
PLAYORDER=
